<?xml version="1.0" standalone="no"?>
<!DOCTYPE svg PUBLIC "-//W3C//DTD SVG 20010904//EN"
 "http://www.w3.org/TR/2001/REC-SVG-20010904/DTD/svg10.dtd">
<svg version="1.0" xmlns="http://www.w3.org/2000/svg"
 width="502.000000pt" height="525.000000pt" viewBox="0 0 502.000000 525.000000"
 preserveAspectRatio="xMidYMid meet">
<metadata>
Created by potrace 1.16, written by Peter Selinger 2001-2019
</metadata>
<g transform="translate(0.000000,525.000000) scale(0.100000,-0.100000)"
fill="#000000" stroke="none">
<path d="M2210 4739 c-41 -5 -137 -20 -212 -35 l-137 -26 6 -32 c12 -69 61
-195 97 -249 53 -80 154 -169 239 -211 315 -155 689 -31 846 281 27 54 60 163
61 199 0 14 -172 51 -326 69 -130 16 -453 18 -574 4z"/>
<path d="M1339 4432 c-280 -187 -505 -412 -690 -691 -38 -58 -68 -110 -66
-115 2 -6 28 -26 57 -44 254 -152 579 -109 781 105 117 124 169 257 169 430 0
115 -17 190 -65 289 -57 116 -51 116 -186 26z"/>
<path d="M3480 4459 c-222 -344 -55 -809 334 -935 66 -22 101 -27 186 -27 123
0 204 18 300 69 114 60 111 48 38 161 -133 204 -329 421 -509 567 -78 63 -299
216 -311 216 -3 0 -20 -23 -38 -51z"/>
<path d="M2392 3939 c-26 -13 -55 -39 -70 -62 -23 -35 -27 -51 -27 -118 0 -71
2 -80 31 -116 41 -50 81 -72 143 -80 42 -5 59 -1 106 21 115 57 147 200 68
305 -52 68 -167 91 -251 50z"/>
<path d="M1568 3600 c-78 -42 -122 -143 -98 -230 22 -81 113 -150 200 -150 42
0 126 46 155 84 30 40 43 108 31 171 -8 43 -68 113 -113 132 -47 19 -131 16
-175 -7z"/>
<path d="M3225 3606 c-17 -7 -45 -29 -62 -49 -63 -72 -67 -174 -10 -249 44
-57 88 -78 162 -78 50 0 69 5 107 29 122 77 115 276 -12 341 -46 23 -138 26
-185 6z"/>
<path d="M412 3208 c-24 -31 -67 -316 -77 -513 -10 -184 22 -516 66 -677 12
-47 26 -48 137 -13 186 59 337 209 399 399 36 112 38 267 5 376 -63 205 -235
370 -442 425 -67 18 -75 18 -88 3z"/>
<path d="M4480 3206 c-214 -60 -391 -237 -446 -447 -22 -83 -22 -234 -1 -316
38 -143 141 -287 265 -369 60 -40 199 -94 244 -94 32 0 38 18 68 185 59 326
47 713 -31 1018 -11 42 -22 44 -99 23z"/>
<path d="M1255 2787 c-51 -20 -80 -45 -105 -89 -54 -95 -16 -224 80 -276 93
-49 217 -14 268 77 26 46 30 146 8 189 -46 89 -161 134 -251 99z"/>
<path d="M3575 2782 c-78 -38 -115 -96 -115 -182 0 -86 38 -145 115 -181 151
-70 319 69 276 228 -6 26 -23 62 -36 79 -49 65 -165 91 -240 56z"/>
<path d="M1615 1971 c-45 -11 -69 -26 -103 -65 -30 -34 -52 -90 -52 -131 0
-70 56 -156 117 -181 73 -31 188 -10 235 43 66 73 62 223 -8 284 -48 42 -132
64 -189 50z"/>
<path d="M3218 1950 c-78 -42 -122 -143 -98 -230 16 -59 80 -124 139 -140 85
-22 163 5 217 76 24 31 29 48 32 108 3 65 1 75 -26 117 -54 83 -176 115 -264
69z"/>
<path d="M874 1701 c-28 -5 -80 -18 -116 -30 -65 -22 -178 -86 -178 -101 0 -4
31 -55 68 -112 184 -277 409 -504 686 -689 114 -77 119 -79 138 -63 27 25 85
148 103 219 19 76 19 234 0 310 -54 213 -233 396 -440 449 -77 19 -196 27
-261 17z"/>
<path d="M3850 1684 c-107 -28 -200 -82 -281 -163 -83 -84 -119 -141 -154
-247 -60 -176 -35 -378 67 -536 16 -27 34 -48 39 -48 5 0 60 35 123 78 284
192 508 419 693 701 59 90 62 96 46 113 -24 27 -148 85 -218 103 -75 19 -241
19 -315 -1z"/>
<path d="M2415 1615 c-50 -17 -112 -85 -121 -132 -27 -142 59 -253 195 -253
208 0 275 281 89 374 -58 29 -103 32 -163 11z"/>
<path d="M2342 1055 c-238 -52 -430 -259 -475 -511 l-6 -31 77 -16 c245 -52
573 -72 804 -48 101 11 357 56 366 66 11 10 -25 130 -60 205 -33 69 -56 101
-122 165 -93 92 -167 136 -282 165 -90 23 -209 25 -302 5z"/>
</g>
</svg>
