<svg xmlns="http://www.w3.org/2000/svg" xmlns:xlink="http://www.w3.org/1999/xlink" version="1.1" width="820px" height="500px" style="shape-rendering:geometricPrecision; text-rendering:geometricPrecision; image-rendering:optimizeQuality; fill-rule:evenodd; clip-rule:evenodd">
<g><path style="opacity:1" fill="#05086c" d="M 440.5,3.5 C 419.833,3.5 399.167,3.5 378.5,3.5C 387.618,1.98991 396.952,1.32325 406.5,1.5C 418.031,1.43 429.365,2.09667 440.5,3.5 Z"/></g>
<g><path style="opacity:1" fill="#05086c" d="M 378.5,3.5 C 399.167,3.5 419.833,3.5 440.5,3.5C 448.456,3.88064 456.123,5.21397 463.5,7.5C 430.955,4.29736 398.288,3.63069 365.5,5.5C 369.591,4.10452 373.924,3.43786 378.5,3.5 Z"/></g>
<g><path style="opacity:1" fill="#05086c" d="M 463.5,7.5 C 468.481,9.74527 473.814,11.0786 479.5,11.5C 479.833,11.5 480.167,11.5 480.5,11.5C 483.821,13.5811 487.488,15.4145 491.5,17C 493.473,17.4955 495.473,17.6621 497.5,17.5C 497.833,17.5 498.167,17.5 498.5,17.5C 498.369,18.3764 498.702,19.0431 499.5,19.5C 506.966,22.9083 514.466,26.2416 522,29.5C 522.765,29.4301 523.265,29.0967 523.5,28.5C 529.87,31.679 535.87,35.3457 541.5,39.5C 547.487,46.6743 554.82,52.1743 563.5,56C 564.866,58.3818 564.533,60.5485 562.5,62.5C 564.005,65.1306 564.671,64.7973 564.5,61.5C 568.224,61.0502 570.391,62.7168 571,66.5C 573.167,68 575.333,69.5 577.5,71C 576.552,71.4828 575.552,71.6495 574.5,71.5C 574.238,72.9778 574.571,74.3112 575.5,75.5C 575.911,74.7376 576.077,73.7376 576,72.5C 578.567,74.3051 581.401,75.6385 584.5,76.5C 585.728,79.0715 587.728,80.4048 590.5,80.5C 590.5,81.5 590.5,82.5 590.5,83.5C 592.322,83.8308 593.989,84.4975 595.5,85.5C 598.694,89.2214 600.861,93.5547 602,98.5C 604.638,100.498 607.305,102.498 610,104.5C 615.097,112.391 620.264,120.057 625.5,127.5C 627.588,129.336 628.921,131.669 629.5,134.5C 632.39,142.79 635.724,150.956 639.5,159C 639.836,160.03 640.503,160.53 641.5,160.5C 642.97,164.912 644.637,169.245 646.5,173.5C 645.835,177.423 646.335,181.423 648,185.5C 648.333,190.833 648.667,196.167 649,201.5C 649.368,202.91 650.201,203.91 651.5,204.5C 652.168,206.969 652.835,209.302 653.5,211.5C 654.021,215.481 654.354,219.481 654.5,223.5C 654.667,242.836 654.5,262.17 654,281.5C 650.182,285.975 649.682,289.975 652.5,293.5C 652.108,296.849 651.608,300.183 651,303.5C 649.578,303.594 648.078,303.928 646.5,304.5C 647.969,306.192 648.635,308.192 648.5,310.5C 647.753,315.901 646.753,321.234 645.5,326.5C 645.5,326.833 645.5,327.167 645.5,327.5C 643.907,328.348 642.74,329.681 642,331.5C 641.005,335.145 640.172,338.812 639.5,342.5C 636.522,344.675 635.022,347.675 635,351.5C 631.635,358.42 627.802,365.086 623.5,371.5C 622.849,372.091 622.182,372.757 621.5,373.5C 620.914,373.291 620.414,372.957 620,372.5C 619.586,376.351 618.752,380.017 617.5,383.5C 614.692,383.307 612.025,382.64 609.5,381.5C 609.626,384.595 611.293,386.428 614.5,387C 608.811,393.943 603.311,401.109 598,408.5C 597.209,409.745 596.709,411.078 596.5,412.5C 594.57,416.1 591.903,419.1 588.5,421.5C 585.181,424.163 581.514,426.33 577.5,428C 576.714,431.068 575.047,433.568 572.5,435.5C 567.086,439.923 561.419,443.923 555.5,447.5C 553.722,449.264 552.389,451.264 551.5,453.5C 551.167,453.5 550.833,453.5 550.5,453.5C 547.796,453.67 546.129,455.003 545.5,457.5C 545.167,457.5 544.833,457.5 544.5,457.5C 541.314,457.895 538.314,458.895 535.5,460.5C 534.614,461.325 534.281,462.325 534.5,463.5C 533.127,463.343 531.793,463.51 530.5,464C 531.056,464.383 531.389,464.883 531.5,465.5C 528.833,465.833 526.167,466.167 523.5,466.5C 523.719,467.675 523.386,468.675 522.5,469.5C 517.213,471.972 512.213,474.639 507.5,477.5C 500.016,478.591 493.35,481.257 487.5,485.5C 487.167,485.5 486.833,485.5 486.5,485.5C 480.228,486.879 473.895,488.046 467.5,489C 466.748,489.671 466.414,490.504 466.5,491.5C 465.833,491.5 465.167,491.5 464.5,491.5C 456.331,491.5 448.331,492.667 440.5,495C 419.169,495.5 397.836,495.667 376.5,495.5C 375.833,495.5 375.167,495.5 374.5,495.5C 372.628,493.938 370.295,492.938 367.5,492.5C 361.859,491.558 356.193,490.891 350.5,490.5C 347.848,490.59 345.515,489.924 343.5,488.5C 338.605,485.735 333.271,484.068 327.5,483.5C 313.313,479.223 299.979,473.223 287.5,465.5C 282.585,461.698 277.252,458.365 271.5,455.5C 268.63,454.567 266.296,452.9 264.5,450.5C 259.382,445.442 253.715,441.109 247.5,437.5C 236.461,428.795 226.795,418.795 218.5,407.5C 218.328,405.508 218.995,403.842 220.5,402.5C 218.883,402.331 217.216,401.997 215.5,401.5C 212.785,397.404 210.619,393.071 209,388.5C 208.586,388.957 208.086,389.291 207.5,389.5C 206.476,388.147 205.143,387.48 203.5,387.5C 201.83,384.694 202.163,382.194 204.5,380C 203.101,379.405 201.768,379.572 200.5,380.5C 198.24,378.593 198.073,376.593 200,374.5C 200.605,376.481 201.605,376.815 203,375.5C 204.031,374.3 204.865,372.966 205.5,371.5C 205.167,370.833 204.833,370.167 204.5,369.5C 203.167,373.5 201.833,373.5 200.5,369.5C 198.833,370.5 197.5,371.833 196.5,373.5C 194.848,369.892 193.348,366.226 192,362.5C 189.372,358.854 186.538,355.52 183.5,352.5C 183.5,352.167 183.5,351.833 183.5,351.5C 182.683,348.521 181.849,345.521 181,342.5C 180.502,340.456 179.335,339.122 177.5,338.5C 177.5,338.167 177.5,337.833 177.5,337.5C 177.042,331.117 175.042,325.451 171.5,320.5C 170.366,317.63 169.7,314.63 169.5,311.5C 168.063,301.151 166.563,290.818 165,280.5C 164.832,261.329 164.332,242.329 163.5,223.5C 163.768,221.901 163.434,220.568 162.5,219.5C 163.234,218.292 163.567,216.959 163.5,215.5C 164.649,215.209 165.316,214.376 165.5,213C 168.005,204.662 169.339,196.162 169.5,187.5C 169.756,184.402 170.422,181.402 171.5,178.5C 172.885,177.426 174.051,176.093 175,174.5C 178.049,163.95 181.549,153.617 185.5,143.5C 188.413,140.822 190.413,137.489 191.5,133.5C 192.5,132.833 193.5,132.167 194.5,131.5C 195.256,128.023 196.256,124.69 197.5,121.5C 199.148,119.571 200.815,117.571 202.5,115.5C 203.167,116.167 203.833,116.833 204.5,117.5C 205.051,115.587 205.218,113.587 205,111.5C 206.777,108.941 208.277,106.274 209.5,103.5C 215.306,98.3636 219.973,92.3636 223.5,85.5C 227.602,83.7338 230.269,80.7338 231.5,76.5C 232.552,76.6495 233.552,76.4828 234.5,76C 236.298,73.5275 238.632,71.8608 241.5,71C 243.12,68.6274 244.454,66.1274 245.5,63.5C 248.63,62.4278 251.296,60.5945 253.5,58C 255.345,56.872 257.345,56.372 259.5,56.5C 260.031,53.2206 262.031,51.8872 265.5,52.5C 265.33,51.1779 265.663,50.0113 266.5,49C 270.693,48.5638 274.359,47.0638 277.5,44.5C 276.833,43.8333 276.167,43.1667 275.5,42.5C 277.772,40.3489 280.439,38.8489 283.5,38C 284.71,36.9609 285.71,35.7942 286.5,34.5C 295.861,31.1531 304.527,26.8197 312.5,21.5C 314.509,19.9348 316.843,18.9348 319.5,18.5C 329.164,16.1141 338.831,13.9474 348.5,12C 347.748,11.3292 347.414,10.4959 347.5,9.5C 353.218,9.2948 358.885,8.62814 364.5,7.5C 364.863,6.81654 365.196,6.14987 365.5,5.5C 398.288,3.63069 430.955,4.29736 463.5,7.5 Z"/></g>
<g><path style="opacity:1" fill="#05086c" d="M 365.5,5.5 C 365.196,6.14987 364.863,6.81654 364.5,7.5C 358.885,8.62814 353.218,9.2948 347.5,9.5C 353.191,7.29261 359.191,5.95927 365.5,5.5 Z"/></g>
<g><path style="opacity:0.816" fill="#05086c" d="M 463.5,7.5 C 469.164,7.96076 474.497,9.2941 479.5,11.5C 473.814,11.0786 468.481,9.74527 463.5,7.5 Z"/></g>
<g><path style="opacity:1" fill="#05086c" d="M 347.5,9.5 C 347.414,10.4959 347.748,11.3292 348.5,12C 338.831,13.9474 329.164,16.1141 319.5,18.5C 328.363,14.3245 337.696,11.3245 347.5,9.5 Z"/></g>
<g><path style="opacity:1" fill="#05086c" d="M 480.5,11.5 C 486.392,13.1291 492.059,15.1291 497.5,17.5C 495.473,17.6621 493.473,17.4955 491.5,17C 487.488,15.4145 483.821,13.5811 480.5,11.5 Z"/></g>
<g><path style="opacity:0.992" fill="#05086c" d="M 498.5,17.5 C 506.951,20.8918 515.284,24.5585 523.5,28.5C 523.265,29.0967 522.765,29.4301 522,29.5C 514.466,26.2416 506.966,22.9083 499.5,19.5C 498.702,19.0431 498.369,18.3764 498.5,17.5 Z"/></g>
<g><path style="opacity:1" fill="#05086c" d="M 312.5,21.5 C 304.527,26.8197 295.861,31.1531 286.5,34.5C 294.57,29.1317 303.237,24.7983 312.5,21.5 Z"/></g>
<g><path style="opacity:1" fill="#05086c" d="M 286.5,34.5 C 285.71,35.7942 284.71,36.9609 283.5,38C 280.439,38.8489 277.772,40.3489 275.5,42.5C 276.167,43.1667 276.833,43.8333 277.5,44.5C 274.359,47.0638 270.693,48.5638 266.5,49C 265.663,50.0113 265.33,51.1779 265.5,52.5C 262.031,51.8872 260.031,53.2206 259.5,56.5C 257.345,56.372 255.345,56.872 253.5,58C 251.296,60.5945 248.63,62.4278 245.5,63.5C 257.774,51.8974 271.441,42.2307 286.5,34.5 Z"/></g>
<g><path style="opacity:0.973" fill="#05086c" d="M 565.5,56.5 C 567.54,58.177 569.54,59.8437 571.5,61.5C 568.268,61.2283 566.268,59.5616 565.5,56.5 Z"/></g>
<g><path style="opacity:1" fill="#05086c" d="M 245.5,63.5 C 244.454,66.1274 243.12,68.6274 241.5,71C 238.632,71.8608 236.298,73.5275 234.5,76C 233.552,76.4828 232.552,76.6495 231.5,76.5C 235.539,71.46 240.206,67.1266 245.5,63.5 Z"/></g>
<g><path style="opacity:1" fill="#05086c" d="M 541.5,39.5 C 550.079,44.4219 558.079,50.0886 565.5,56.5C 566.268,59.5616 568.268,61.2283 571.5,61.5C 580.5,68.5 588.5,76.5 595.5,85.5C 593.989,84.4975 592.322,83.8308 590.5,83.5C 590.5,82.5 590.5,81.5 590.5,80.5C 587.728,80.4048 585.728,79.0715 584.5,76.5C 581.401,75.6385 578.567,74.3051 576,72.5C 576.077,73.7376 575.911,74.7376 575.5,75.5C 574.571,74.3112 574.238,72.9778 574.5,71.5C 575.552,71.6495 576.552,71.4828 577.5,71C 575.333,69.5 573.167,68 571,66.5C 570.391,62.7168 568.224,61.0502 564.5,61.5C 564.671,64.7973 564.005,65.1306 562.5,62.5C 564.533,60.5485 564.866,58.3818 563.5,56C 554.82,52.1743 547.487,46.6743 541.5,39.5 Z"/></g>
<g><path style="opacity:1" fill="#05086c" d="M 231.5,76.5 C 230.269,80.7338 227.602,83.7338 223.5,85.5C 226.195,82.4744 228.862,79.4744 231.5,76.5 Z"/></g>
<g><path style="opacity:1" fill="#05086c" d="M 551.5,90.5 C 552.476,89.1851 553.476,87.8518 554.5,86.5C 494.169,85.3334 433.836,85.1667 373.5,86C 361.255,97.4179 348.589,108.251 335.5,118.5C 335.369,117.761 335.536,117.094 336,116.5C 339.353,113.313 342.853,110.313 346.5,107.5C 346.991,105.321 346.991,103.321 346.5,101.5C 353.578,103.188 357.244,100.188 357.5,92.5C 358.873,92.6567 360.207,92.49 361.5,92C 365.224,90.2062 368.558,87.8729 371.5,85C 432.833,84.3333 494.167,84.3333 555.5,85C 556.12,87.9247 554.786,89.7581 551.5,90.5 Z"/></g>
<g><path style="opacity:1" fill="#ffffff" d="M 551.5,90.5 C 546.163,93.6706 541.997,98.004 539,103.5C 537.439,112.188 538.939,120.188 543.5,127.5C 544.939,132.37 545.606,137.37 545.5,142.5C 545.04,150.328 544.707,158.161 544.5,166C 546.102,183.627 547.102,201.293 547.5,219C 547.333,225.833 547.167,232.667 547,239.5C 546.392,241.154 545.892,242.821 545.5,244.5C 544.833,246.5 544.167,248.5 543.5,250.5C 530.299,255.841 523.132,251.508 522,237.5C 521.141,213.137 521.641,188.803 523.5,164.5C 522.218,153.795 522.385,143.128 524,132.5C 524.906,129.69 526.073,127.024 527.5,124.5C 527.5,123.833 527.5,123.167 527.5,122.5C 528.973,119.983 529.64,117.15 529.5,114C 529.167,112.167 528.833,110.333 528.5,108.5C 525.923,109.943 523.59,111.61 521.5,113.5C 521.167,113.5 520.833,113.5 520.5,113.5C 508.612,122.604 496.945,131.937 485.5,141.5C 481.832,142.667 479.832,145.167 479.5,149C 480.002,153.859 481.335,158.359 483.5,162.5C 491.185,185.756 486.518,206.089 469.5,223.5C 469.167,223.5 468.833,223.5 468.5,223.5C 460.189,228.811 453.189,235.478 447.5,243.5C 445.59,244.975 444.424,246.975 444,249.5C 442.239,258.944 444.739,266.944 451.5,273.5C 452.585,275.587 454.251,276.92 456.5,277.5C 457.625,279.129 458.959,280.629 460.5,282C 463.222,284.358 466.222,286.191 469.5,287.5C 476.142,293.137 482.808,298.804 489.5,304.5C 493.402,311.634 496.736,318.967 499.5,326.5C 499.448,328.903 499.781,331.236 500.5,333.5C 501.706,345.644 500.039,357.311 495.5,368.5C 493.91,372.742 491.91,376.742 489.5,380.5C 485.702,383.796 482.036,387.296 478.5,391C 474.32,393.696 470.32,396.53 466.5,399.5C 464.315,399.704 462.315,400.37 460.5,401.5C 454.832,404.05 449.165,406.383 443.5,408.5C 432.404,410.425 421.404,412.092 410.5,413.5C 394.491,414.041 378.824,412.041 363.5,407.5C 352.719,403.774 342.719,398.441 333.5,391.5C 332.5,390.833 331.5,390.167 330.5,389.5C 313.78,374.234 310.113,356.234 319.5,335.5C 322.47,331.68 325.304,327.68 328,323.5C 331.396,319.935 334.896,316.602 338.5,313.5C 341.871,311.154 345.204,308.821 348.5,306.5C 353.022,304.736 357.355,302.736 361.5,300.5C 368.005,298.207 374.671,296.54 381.5,295.5C 394.629,294.025 407.629,292.692 420.5,291.5C 419.066,288.953 417.4,286.619 415.5,284.5C 411.152,275.327 409.485,265.661 410.5,255.5C 410.5,255.167 410.5,254.833 410.5,254.5C 411.391,252.709 412.391,250.876 413.5,249C 407.151,248.594 400.817,248.094 394.5,247.5C 388.426,246.481 382.426,245.148 376.5,243.5C 372.355,241.264 368.022,239.264 363.5,237.5C 358.562,233.064 353.729,228.397 349,223.5C 345.284,218.062 342.118,212.395 339.5,206.5C 339.737,205.209 339.404,204.209 338.5,203.5C 336.757,196.037 335.424,188.537 334.5,181C 311.5,180.667 288.5,180.333 265.5,180C 269.624,176.945 273.291,173.445 276.5,169.5C 277.222,168.449 278.222,167.782 279.5,167.5C 285.155,163.177 290.488,158.51 295.5,153.5C 309.451,142.55 322.784,130.883 335.5,118.5C 348.589,108.251 361.255,97.4179 373.5,86C 433.836,85.1667 494.169,85.3334 554.5,86.5C 553.476,87.8518 552.476,89.1851 551.5,90.5 Z"/></g>
<g><path style="opacity:1" fill="#05086c" d="M 223.5,85.5 C 219.973,92.3636 215.306,98.3636 209.5,103.5C 213.203,96.7675 217.869,90.7675 223.5,85.5 Z"/></g>
<g><path style="opacity:1" fill="#05086c" d="M 551.5,90.5 C 551.657,91.8734 551.49,93.2068 551,94.5C 548.54,95.9578 546.373,97.7911 544.5,100C 543.552,100.483 542.552,100.649 541.5,100.5C 541.04,103.977 540.707,107.477 540.5,111C 540.98,116.604 541.98,122.104 543.5,127.5C 538.939,120.188 537.439,112.188 539,103.5C 541.997,98.004 546.163,93.6706 551.5,90.5 Z"/></g>
<g><path style="opacity:1" fill="#05086c" d="M 595.5,85.5 C 607.46,98.0829 617.46,112.083 625.5,127.5C 620.264,120.057 615.097,112.391 610,104.5C 607.305,102.498 604.638,100.498 602,98.5C 600.861,93.5547 598.694,89.2214 595.5,85.5 Z"/></g>
<g><path style="opacity:1" fill="#05086c" d="M 527.5,122.5 C 527.823,118.774 527.489,115.107 526.5,111.5C 525.15,112.95 523.484,113.617 521.5,113.5C 523.59,111.61 525.923,109.943 528.5,108.5C 528.833,110.333 529.167,112.167 529.5,114C 529.64,117.15 528.973,119.983 527.5,122.5 Z"/></g>
<g><path style="opacity:1" fill="#05086c" d="M 209.5,103.5 C 208.277,106.274 206.777,108.941 205,111.5C 205.218,113.587 205.051,115.587 204.5,117.5C 203.833,116.833 203.167,116.167 202.5,115.5C 200.815,117.571 199.148,119.571 197.5,121.5C 200.511,114.803 204.511,108.803 209.5,103.5 Z"/></g>
<g><path style="opacity:1" fill="#05086c" d="M 520.5,113.5 C 518.285,116.315 515.951,119.148 513.5,122C 504.29,128.716 494.956,135.216 485.5,141.5C 496.945,131.937 508.612,122.604 520.5,113.5 Z"/></g>
<g><path style="opacity:1" fill="#05086c" d="M 420.5,131.5 C 408.468,128.86 396.468,128.86 384.5,131.5C 396.472,124.889 408.472,124.889 420.5,131.5 Z"/></g>
<g><path style="opacity:1" fill="#05086c" d="M 335.5,118.5 C 322.784,130.883 309.451,142.55 295.5,153.5C 295.34,151.801 295.506,150.134 296,148.5C 297.049,149.517 298.216,149.684 299.5,149C 303.84,144.327 308.506,139.994 313.5,136C 314.406,134.301 314.739,132.467 314.5,130.5C 315.93,130.421 317.264,130.754 318.5,131.5C 318.569,129.722 318.903,127.889 319.5,126C 321.488,125.82 323.488,125.986 325.5,126.5C 325.215,124.712 325.548,123.045 326.5,121.5C 327.293,121.931 328.127,122.265 329,122.5C 331.059,120.93 333.226,119.597 335.5,118.5 Z"/></g>
<g><path style="opacity:0.973" fill="#05086c" d="M 197.5,121.5 C 196.256,124.69 195.256,128.023 194.5,131.5C 193.5,132.167 192.5,132.833 191.5,133.5C 190.413,137.489 188.413,140.822 185.5,143.5C 188.488,135.518 192.488,128.185 197.5,121.5 Z"/></g>
<g><path style="opacity:1" fill="#05086c" d="M 421.5,131.5 C 425.138,133.99 428.805,136.49 432.5,139C 434.464,140.451 435.797,142.284 436.5,144.5C 435.292,143.766 433.959,143.433 432.5,143.5C 430.768,139.607 427.768,136.774 423.5,135C 422.177,134.184 421.511,133.017 421.5,131.5 Z"/></g>
<g><path style="opacity:1" fill="#05086c" d="M 420.5,131.5 C 420.833,131.5 421.167,131.5 421.5,131.5C 421.511,133.017 422.177,134.184 423.5,135C 427.768,136.774 430.768,139.607 432.5,143.5C 433.959,143.433 435.292,143.766 436.5,144.5C 438.914,145.911 440.581,147.911 441.5,150.5C 441.343,151.873 441.51,153.207 442,154.5C 445.122,157.287 447.455,160.621 449,164.5C 448.31,168.438 447.977,172.438 448,176.5C 449.017,174.624 449.851,172.624 450.5,170.5C 451.902,174.162 452.902,177.829 453.5,181.5C 454.268,182.263 454.768,183.263 455,184.5C 455.5,190.825 455.666,197.158 455.5,203.5C 455.005,211.654 452.338,218.987 447.5,225.5C 446.761,225.369 446.094,225.536 445.5,226C 442.688,229.176 440.022,232.343 437.5,235.5C 431.47,236.296 425.47,237.296 419.5,238.5C 413.564,239.69 408.897,237.857 405.5,233C 402.139,232.946 399.139,231.946 396.5,230C 391.764,224.655 386.931,219.488 382,214.5C 376.822,206.913 372.822,198.58 370,189.5C 368.688,178.878 368.188,168.211 368.5,157.5C 369.15,155.565 369.483,153.565 369.5,151.5C 371.017,151.489 372.184,150.823 373,149.5C 373.333,147.5 373.667,145.5 374,143.5C 376.669,140 379.502,136.667 382.5,133.5C 382.833,132.5 383.5,131.833 384.5,131.5C 396.468,128.86 408.468,128.86 420.5,131.5 Z"/></g>
<g><path style="opacity:0.949" fill="#05086c" d="M 629.5,134.5 C 634.064,142.835 638.064,151.501 641.5,160.5C 640.503,160.53 639.836,160.03 639.5,159C 635.724,150.956 632.39,142.79 629.5,134.5 Z"/></g>
<g><path style="opacity:1" fill="#05086c" d="M 382.5,133.5 C 379.502,136.667 376.669,140 374,143.5C 373.667,145.5 373.333,147.5 373,149.5C 372.184,150.823 371.017,151.489 369.5,151.5C 371.407,143.664 375.74,137.664 382.5,133.5 Z"/></g>
<g><path style="opacity:1" fill="#05086c" d="M 485.5,141.5 C 484.878,142.627 484.045,143.627 483,144.5C 482.591,150.51 482.758,156.51 483.5,162.5C 481.335,158.359 480.002,153.859 479.5,149C 479.832,145.167 481.832,142.667 485.5,141.5 Z"/></g>
<g><path style="opacity:1" fill="#05086c" d="M 185.5,143.5 C 181.549,153.617 178.049,163.95 175,174.5C 174.051,176.093 172.885,177.426 171.5,178.5C 175.013,166.279 179.679,154.613 185.5,143.5 Z"/></g>
<g><path style="opacity:1" fill="#05086c" d="M 527.5,124.5 C 526.073,127.024 524.906,129.69 524,132.5C 522.385,143.128 522.218,153.795 523.5,164.5C 521.641,188.803 521.141,213.137 522,237.5C 523.132,251.508 530.299,255.841 543.5,250.5C 542.942,251.79 541.942,252.623 540.5,253C 535.428,253.751 530.428,253.418 525.5,252C 523.513,250.681 522.346,248.848 522,246.5C 520.226,250.614 519.393,250.447 519.5,246C 519.948,209.525 520.781,173.025 522,136.5C 522.452,133.123 523.118,129.789 524,126.5C 524.816,125.177 525.983,124.511 527.5,124.5 Z"/></g>
<g><path style="opacity:1" fill="#05086c" d="M 543.5,127.5 C 544.15,127.804 544.817,128.137 545.5,128.5C 547.57,139.592 547.903,150.759 546.5,162C 548.504,188.405 549.004,214.905 548,241.5C 547.764,243.119 546.931,244.119 545.5,244.5C 545.892,242.821 546.392,241.154 547,239.5C 547.167,232.667 547.333,225.833 547.5,219C 547.102,201.293 546.102,183.627 544.5,166C 544.707,158.161 545.04,150.328 545.5,142.5C 545.606,137.37 544.939,132.37 543.5,127.5 Z"/></g>
<g><path style="opacity:1" fill="#05086c" d="M 295.5,153.5 C 290.488,158.51 285.155,163.177 279.5,167.5C 280.038,165.883 280.371,164.216 280.5,162.5C 285.211,159.144 290.211,156.144 295.5,153.5 Z"/></g>
<g><path style="opacity:1" fill="#05086c" d="M 369.5,151.5 C 369.483,153.565 369.15,155.565 368.5,157.5C 367.508,165.316 367.174,173.316 367.5,181.5C 366.71,180.391 366.21,179.058 366,177.5C 365.333,172.167 365.333,166.833 366,161.5C 366.302,157.755 367.469,154.422 369.5,151.5 Z"/></g>
<g><path style="opacity:1" fill="#05086c" d="M 441.5,150.5 C 447.595,157.356 451.595,165.356 453.5,174.5C 453.5,176.833 453.5,179.167 453.5,181.5C 452.902,177.829 451.902,174.162 450.5,170.5C 449.851,172.624 449.017,174.624 448,176.5C 447.977,172.438 448.31,168.438 449,164.5C 447.455,160.621 445.122,157.287 442,154.5C 441.51,153.207 441.343,151.873 441.5,150.5 Z"/></g>
<g><path style="opacity:1" fill="#05086c" d="M 276.5,169.5 C 273.291,173.445 269.624,176.945 265.5,180C 288.5,180.333 311.5,180.667 334.5,181C 335.424,188.537 336.757,196.037 338.5,203.5C 337.414,203.38 336.747,202.713 336.5,201.5C 334.453,195.228 332.786,188.895 331.5,182.5C 308.833,182.5 286.167,182.5 263.5,182.5C 263.745,177.925 266.079,175.259 270.5,174.5C 270.343,173.127 270.51,171.793 271,170.5C 271.414,170.957 271.914,171.291 272.5,171.5C 273.622,170.37 274.956,169.703 276.5,169.5 Z"/></g>
<g><path style="opacity:1" fill="#05086c" d="M 453.5,174.5 C 454.761,177.258 455.594,180.258 456,183.5C 456.821,190.346 456.654,197.013 455.5,203.5C 455.666,197.158 455.5,190.825 455,184.5C 454.768,183.263 454.268,182.263 453.5,181.5C 453.5,179.167 453.5,176.833 453.5,174.5 Z"/></g>
<g><path style="opacity:1" fill="#05086c" d="M 646.5,173.5 C 649.621,183.651 651.954,193.985 653.5,204.5C 653.5,206.833 653.5,209.167 653.5,211.5C 652.835,209.302 652.168,206.969 651.5,204.5C 650.201,203.91 649.368,202.91 649,201.5C 648.667,196.167 648.333,190.833 648,185.5C 646.335,181.423 645.835,177.423 646.5,173.5 Z"/></g>
<g><path style="opacity:1" fill="#05086c" d="M 169.5,187.5 C 169.339,196.162 168.005,204.662 165.5,213C 165.316,214.376 164.649,215.209 163.5,215.5C 164.626,205.86 166.626,196.527 169.5,187.5 Z"/></g>
<g><path style="opacity:1" fill="#05086c" d="M 368.5,157.5 C 368.188,168.211 368.688,178.878 370,189.5C 372.822,198.58 376.822,206.913 382,214.5C 386.931,219.488 391.764,224.655 396.5,230C 399.139,231.946 402.139,232.946 405.5,233C 408.897,237.857 413.564,239.69 419.5,238.5C 425.47,237.296 431.47,236.296 437.5,235.5C 434.872,237.481 431.872,238.981 428.5,240C 416.159,241.832 405.159,238.832 395.5,231C 379.798,218.095 370.465,201.595 367.5,181.5C 367.174,173.316 367.508,165.316 368.5,157.5 Z"/></g>
<g><path style="opacity:1" fill="#05086c" d="M 483.5,162.5 C 486.022,167.901 487.855,173.567 489,179.5C 488.758,193.395 484.758,206.062 477,217.5C 474.894,220.118 472.394,222.118 469.5,223.5C 486.518,206.089 491.185,185.756 483.5,162.5 Z"/></g>
<g><path style="opacity:1" fill="#05086c" d="M 654.5,223.5 C 655.497,242.993 655.83,262.66 655.5,282.5C 654.061,297.709 650.728,312.376 645.5,326.5C 646.753,321.234 647.753,315.901 648.5,310.5C 648.635,308.192 647.969,306.192 646.5,304.5C 648.078,303.928 649.578,303.594 651,303.5C 651.608,300.183 652.108,296.849 652.5,293.5C 649.682,289.975 650.182,285.975 654,281.5C 654.5,262.17 654.667,242.836 654.5,223.5 Z"/></g>
<g><path style="opacity:1" fill="#05086c" d="M 653.5,204.5 C 655.162,211.278 656.329,218.278 657,225.5C 657.667,240.833 657.667,256.167 657,271.5C 656.823,275.356 656.323,279.023 655.5,282.5C 655.83,262.66 655.497,242.993 654.5,223.5C 654.354,219.481 654.021,215.481 653.5,211.5C 653.5,209.167 653.5,206.833 653.5,204.5 Z"/></g>
<g><path style="opacity:1" fill="#05086c" d="M 339.5,206.5 C 342.118,212.395 345.284,218.062 349,223.5C 353.729,228.397 358.562,233.064 363.5,237.5C 361.844,236.854 360.177,236.187 358.5,235.5C 356.218,236.223 353.884,236.557 351.5,236.5C 351.33,235.178 351.663,234.011 352.5,233C 348.781,229.308 345.947,225.142 344,220.5C 343.195,222.901 342.362,222.734 341.5,220C 339.905,220.617 338.572,220.284 337.5,219C 339.125,218.147 339.458,217.147 338.5,216C 339.448,215.517 340.448,215.351 341.5,215.5C 340.08,212.739 339.413,209.739 339.5,206.5 Z"/></g>
<g><path style="opacity:1" fill="#05086c" d="M 447.5,225.5 C 445.167,229.833 441.833,233.167 437.5,235.5C 440.022,232.343 442.688,229.176 445.5,226C 446.094,225.536 446.761,225.369 447.5,225.5 Z"/></g>
<g><path style="opacity:1" fill="#05086c" d="M 468.5,223.5 C 468.141,225.371 467.141,226.871 465.5,228C 459.038,232.628 453.038,237.795 447.5,243.5C 453.189,235.478 460.189,228.811 468.5,223.5 Z"/></g>
<g><path style="opacity:1" fill="#05086c" d="M 163.5,223.5 C 164.332,242.329 164.832,261.329 165,280.5C 166.563,290.818 168.063,301.151 169.5,311.5C 166.224,301.194 164.224,290.528 163.5,279.5C 163.5,260.833 163.5,242.167 163.5,223.5 Z"/></g>
<g><path style="opacity:1" fill="#05086c" d="M 363.5,237.5 C 368.022,239.264 372.355,241.264 376.5,243.5C 371.37,243.022 367.037,241.022 363.5,237.5 Z"/></g>
<g><path style="opacity:1" fill="#05086c" d="M 162.5,219.5 C 163.434,220.568 163.768,221.901 163.5,223.5C 163.5,242.167 163.5,260.833 163.5,279.5C 161.206,259.689 160.873,239.689 162.5,219.5 Z"/></g>
<g><path style="opacity:1" fill="#05086c" d="M 394.5,247.5 C 400.817,248.094 407.151,248.594 413.5,249C 412.391,250.876 411.391,252.709 410.5,254.5C 410.5,252.833 410.5,251.167 410.5,249.5C 404.729,250.113 399.396,249.446 394.5,247.5 Z"/></g>
<g><path style="opacity:1" fill="#05086c" d="M 447.5,243.5 C 444.768,251.185 444.935,258.852 448,266.5C 450.741,268.067 451.908,270.401 451.5,273.5C 444.739,266.944 442.239,258.944 444,249.5C 444.424,246.975 445.59,244.975 447.5,243.5 Z"/></g>
<g><path style="opacity:1" fill="#05086c" d="M 410.5,255.5 C 409.485,265.661 411.152,275.327 415.5,284.5C 412.777,282.228 410.943,279.228 410,275.5C 409.179,268.654 409.346,261.987 410.5,255.5 Z"/></g>
<g><path style="opacity:1" fill="#05086c" d="M 456.5,277.5 C 461.383,280.109 465.716,283.443 469.5,287.5C 466.222,286.191 463.222,284.358 460.5,282C 458.959,280.629 457.625,279.129 456.5,277.5 Z"/></g>
<g><path style="opacity:1" fill="#05086c" d="M 415.5,284.5 C 417.4,286.619 419.066,288.953 420.5,291.5C 408.099,291.344 395.765,292.011 383.5,293.5C 386.5,292.907 389.5,292.074 392.5,291C 400.853,290.832 409.187,290.332 417.5,289.5C 416.05,288.15 415.383,286.484 415.5,284.5 Z"/></g>
<g><path style="opacity:1" fill="#F9F2E7" d="M 420.5,291.5 C 407.629,292.692 394.629,294.025 381.5,295.5C 382.167,294.833 382.833,294.167 383.5,293.5C 395.765,292.011 408.099,291.344 420.5,291.5 Z"/></g>
<g><path style="opacity:1" fill="#05086c" d="M 469.5,287.5 C 473.933,290.084 478.266,292.918 482.5,296C 485.447,298.436 487.78,301.269 489.5,304.5C 482.808,298.804 476.142,293.137 469.5,287.5 Z"/></g>
<g><path style="opacity:1" fill="#05086c" d="M 455.5,313.5 C 455.281,314.675 455.614,315.675 456.5,316.5C 461.76,319.428 466.426,323.095 470.5,327.5C 470.338,329.527 470.505,331.527 471,333.5C 471.71,334.973 472.876,335.64 474.5,335.5C 476.245,344.089 476.745,352.756 476,361.5C 475.598,362.872 475.098,364.205 474.5,365.5C 472.784,365.997 471.117,366.331 469.5,366.5C 470.711,367.874 471.711,369.374 472.5,371C 471.609,373.279 470.609,375.446 469.5,377.5C 468.581,380.089 466.914,382.089 464.5,383.5C 462.833,383.5 461.167,383.5 459.5,383.5C 459.719,384.675 459.386,385.675 458.5,386.5C 450.945,390.149 443.278,393.316 435.5,396C 423.863,397.399 412.196,397.732 400.5,397C 396.981,396.605 393.648,395.605 390.5,394C 387.518,393.502 384.518,393.335 381.5,393.5C 378.053,390.562 374.053,388.562 369.5,387.5C 361.446,383.113 355.446,376.779 351.5,368.5C 348.304,357.704 347.638,346.704 349.5,335.5C 351.668,331.455 354.168,327.455 357,323.5C 361.732,319.258 366.565,315.258 371.5,311.5C 377.524,309.16 383.524,306.827 389.5,304.5C 390.568,303.566 391.901,303.232 393.5,303.5C 407.257,301.762 420.923,302.262 434.5,305C 441.466,307.988 448.466,310.821 455.5,313.5 Z"/></g>
<g><path style="opacity:1" fill="#05086c" d="M 361.5,300.5 C 357.355,302.736 353.022,304.736 348.5,306.5C 351.941,302.896 356.275,300.896 361.5,300.5 Z"/></g>
<g><path style="opacity:1" fill="#05086c" d="M 455.5,313.5 C 448.466,310.821 441.466,307.988 434.5,305C 420.923,302.262 407.257,301.762 393.5,303.5C 411.55,298.792 429.216,300.292 446.5,308C 449.898,309.357 452.898,311.19 455.5,313.5 Z"/></g>
<g><path style="opacity:1" fill="#05086c" d="M 389.5,304.5 C 383.524,306.827 377.524,309.16 371.5,311.5C 376.8,307.522 382.8,305.189 389.5,304.5 Z"/></g>
<g><path style="opacity:1" fill="#05086c" d="M 489.5,304.5 C 491.022,305.431 492.355,306.598 493.5,308C 496.518,313.862 498.518,320.029 499.5,326.5C 496.736,318.967 493.402,311.634 489.5,304.5 Z"/></g>
<g><path style="opacity:1" fill="#05086c" d="M 371.5,311.5 C 366.565,315.258 361.732,319.258 357,323.5C 354.168,327.455 351.668,331.455 349.5,335.5C 352.972,324.025 360.305,316.025 371.5,311.5 Z"/></g>
<g><path style="opacity:1" fill="#05086c" d="M 455.5,313.5 C 461.783,316.783 466.783,321.45 470.5,327.5C 466.426,323.095 461.76,319.428 456.5,316.5C 455.614,315.675 455.281,314.675 455.5,313.5 Z"/></g>
<g><path style="opacity:1" fill="#05086c" d="M 338.5,313.5 C 334.896,316.602 331.396,319.935 328,323.5C 325.304,327.68 322.47,331.68 319.5,335.5C 319.351,334.448 319.517,333.448 320,332.5C 323.837,326.824 327.67,321.157 331.5,315.5C 333.608,314.056 335.941,313.39 338.5,313.5 Z"/></g>
<g><path style="opacity:1" fill="#05086c" d="M 171.5,320.5 C 175.042,325.451 177.042,331.117 177.5,337.5C 175.129,332.059 173.129,326.392 171.5,320.5 Z"/></g>
<g><path style="opacity:1" fill="#05086c" d="M 645.5,327.5 C 644.262,332.895 642.262,337.895 639.5,342.5C 640.172,338.812 641.005,335.145 642,331.5C 642.74,329.681 643.907,328.348 645.5,327.5 Z"/></g>
<g><path style="opacity:1" fill="#05086c" d="M 470.5,327.5 C 480.632,343.018 481.132,359.018 472,375.5C 471.292,376.381 470.458,377.047 469.5,377.5C 470.609,375.446 471.609,373.279 472.5,371C 471.711,369.374 470.711,367.874 469.5,366.5C 471.117,366.331 472.784,365.997 474.5,365.5C 475.098,364.205 475.598,362.872 476,361.5C 476.745,352.756 476.245,344.089 474.5,335.5C 472.876,335.64 471.71,334.973 471,333.5C 470.505,331.527 470.338,329.527 470.5,327.5 Z"/></g>
<g><path style="opacity:1" fill="#05086c" d="M 319.5,335.5 C 310.113,356.234 313.78,374.234 330.5,389.5C 327.269,387.78 324.436,385.447 322,382.5C 313.706,371.991 310.706,359.991 313,346.5C 314.716,343.36 316.049,340.027 317,336.5C 317.671,335.748 318.504,335.414 319.5,335.5 Z"/></g>
<g><path style="opacity:1" fill="#05086c" d="M 177.5,338.5 C 179.335,339.122 180.502,340.456 181,342.5C 181.849,345.521 182.683,348.521 183.5,351.5C 181.13,347.414 179.13,343.081 177.5,338.5 Z"/></g>
<g><path style="opacity:1" fill="#05086c" d="M 349.5,335.5 C 347.638,346.704 348.304,357.704 351.5,368.5C 347.907,362.104 346.24,355.104 346.5,347.5C 346.086,343.021 347.086,339.021 349.5,335.5 Z"/></g>
<g><path style="opacity:0.949" fill="#05086c" d="M 639.5,342.5 C 635.401,354.698 629.734,366.031 622.5,376.5C 623.038,374.883 623.371,373.216 623.5,371.5C 627.802,365.086 631.635,358.42 635,351.5C 635.022,347.675 636.522,344.675 639.5,342.5 Z"/></g>
<g><path style="opacity:1" fill="#05086c" d="M 500.5,333.5 C 502.517,344.847 501.517,356.014 497.5,367C 497.164,368.03 496.497,368.53 495.5,368.5C 500.039,357.311 501.706,345.644 500.5,333.5 Z"/></g>
<g><path style="opacity:1" fill="#05086c" d="M 183.5,352.5 C 186.538,355.52 189.372,358.854 192,362.5C 193.348,366.226 194.848,369.892 196.5,373.5C 197.5,371.833 198.833,370.5 200.5,369.5C 201.833,373.5 203.167,373.5 204.5,369.5C 204.833,370.167 205.167,370.833 205.5,371.5C 204.865,372.966 204.031,374.3 203,375.5C 201.605,376.815 200.605,376.481 200,374.5C 198.073,376.593 198.24,378.593 200.5,380.5C 201.768,379.572 203.101,379.405 204.5,380C 202.163,382.194 201.83,384.694 203.5,387.5C 195.572,376.656 188.906,364.989 183.5,352.5 Z"/></g>
<g><path style="opacity:1" fill="#05086c" d="M 623.5,371.5 C 623.371,373.216 623.038,374.883 622.5,376.5C 615.763,389.902 607.096,401.902 596.5,412.5C 596.709,411.078 597.209,409.745 598,408.5C 603.311,401.109 608.811,393.943 614.5,387C 611.293,386.428 609.626,384.595 609.5,381.5C 612.025,382.64 614.692,383.307 617.5,383.5C 618.752,380.017 619.586,376.351 620,372.5C 620.414,372.957 620.914,373.291 621.5,373.5C 622.182,372.757 622.849,372.091 623.5,371.5 Z"/></g>
<g><path style="opacity:1" fill="#05086c" d="M 369.5,387.5 C 374.053,388.562 378.053,390.562 381.5,393.5C 376.902,392.535 372.902,390.535 369.5,387.5 Z"/></g>
<g><path style="opacity:1" fill="#05086c" d="M 489.5,380.5 C 483.947,389.386 476.281,395.719 466.5,399.5C 470.32,396.53 474.32,393.696 478.5,391C 482.036,387.296 485.702,383.796 489.5,380.5 Z"/></g>
<g><path style="opacity:1" fill="#05086c" d="M 333.5,391.5 C 342.719,398.441 352.719,403.774 363.5,407.5C 353.5,405.922 344.5,402.089 336.5,396C 334.859,394.871 333.859,393.371 333.5,391.5 Z"/></g>
<g><path style="opacity:1" fill="#05086c" d="M 464.5,383.5 C 452.584,392.867 438.917,398.034 423.5,399C 408.837,400.986 394.837,399.153 381.5,393.5C 384.518,393.335 387.518,393.502 390.5,394C 393.648,395.605 396.981,396.605 400.5,397C 412.196,397.732 423.863,397.399 435.5,396C 443.278,393.316 450.945,390.149 458.5,386.5C 459.386,385.675 459.719,384.675 459.5,383.5C 461.167,383.5 462.833,383.5 464.5,383.5 Z"/></g>
<g><path style="opacity:1" fill="#05086c" d="M 203.5,387.5 C 205.143,387.48 206.476,388.147 207.5,389.5C 208.086,389.291 208.586,388.957 209,388.5C 210.619,393.071 212.785,397.404 215.5,401.5C 217.216,401.997 218.883,402.331 220.5,402.5C 218.995,403.842 218.328,405.508 218.5,407.5C 212.738,401.404 207.738,394.738 203.5,387.5 Z"/></g>
<g><path style="opacity:1" fill="#05086c" d="M 460.5,401.5 C 458.255,403.967 455.588,405.967 452.5,407.5C 449.572,408.484 446.572,408.817 443.5,408.5C 449.165,406.383 454.832,404.05 460.5,401.5 Z"/></g>
<g><path style="opacity:1" fill="#05086c" d="M 443.5,408.5 C 441.723,409.6 439.723,410.434 437.5,411C 432.08,411.558 426.747,412.391 421.5,413.5C 417.833,413.5 414.167,413.5 410.5,413.5C 421.404,412.092 432.404,410.425 443.5,408.5 Z"/></g>
<g><path style="opacity:1" fill="#05086c" d="M 363.5,407.5 C 378.824,412.041 394.491,414.041 410.5,413.5C 414.167,413.5 417.833,413.5 421.5,413.5C 407.339,414.661 393.006,414.827 378.5,414C 378.043,413.586 377.709,413.086 377.5,412.5C 373.506,411.501 369.506,410.501 365.5,409.5C 364.287,409.253 363.62,408.586 363.5,407.5 Z"/></g>
<g><path style="opacity:0.886" fill="#05086c" d="M 588.5,421.5 C 577.373,433.632 565.039,444.299 551.5,453.5C 552.389,451.264 553.722,449.264 555.5,447.5C 561.419,443.923 567.086,439.923 572.5,435.5C 575.047,433.568 576.714,431.068 577.5,428C 581.514,426.33 585.181,424.163 588.5,421.5 Z"/></g>
<g><path style="opacity:1" fill="#05086c" d="M 247.5,437.5 C 253.715,441.109 259.382,445.442 264.5,450.5C 258.285,446.891 252.618,442.558 247.5,437.5 Z"/></g>
<g><path style="opacity:0.667" fill="#05086c" d="M 550.5,453.5 C 549.421,455.543 547.754,456.876 545.5,457.5C 546.129,455.003 547.796,453.67 550.5,453.5 Z"/></g>
<g><path style="opacity:0.965" fill="#05086c" d="M 271.5,455.5 C 277.252,458.365 282.585,461.698 287.5,465.5C 281.486,463.165 276.152,459.831 271.5,455.5 Z"/></g>
<g><path style="opacity:1" fill="#05086c" d="M 544.5,457.5 C 540.677,460.916 536.343,463.582 531.5,465.5C 531.389,464.883 531.056,464.383 530.5,464C 531.793,463.51 533.127,463.343 534.5,463.5C 534.281,462.325 534.614,461.325 535.5,460.5C 538.314,458.895 541.314,457.895 544.5,457.5 Z"/></g>
<g><path style="opacity:0.973" fill="#05086c" d="M 531.5,465.5 C 524.097,470.535 516.097,474.535 507.5,477.5C 512.213,474.639 517.213,471.972 522.5,469.5C 523.386,468.675 523.719,467.675 523.5,466.5C 526.167,466.167 528.833,465.833 531.5,465.5 Z"/></g>
<g><path style="opacity:0.992" fill="#05086c" d="M 507.5,477.5 C 501.148,480.733 494.482,483.4 487.5,485.5C 493.35,481.257 500.016,478.591 507.5,477.5 Z"/></g>
<g><path style="opacity:1" fill="#05086c" d="M 327.5,483.5 C 333.271,484.068 338.605,485.735 343.5,488.5C 337.834,487.61 332.5,485.943 327.5,483.5 Z"/></g>
<g><path style="opacity:1" fill="#05086c" d="M 486.5,485.5 C 480.116,488.101 473.449,490.101 466.5,491.5C 466.414,490.504 466.748,489.671 467.5,489C 473.895,488.046 480.228,486.879 486.5,485.5 Z"/></g>
<g><path style="opacity:1" fill="#05086c" d="M 350.5,490.5 C 356.193,490.891 361.859,491.558 367.5,492.5C 370.295,492.938 372.628,493.938 374.5,495.5C 366.224,494.579 358.224,492.913 350.5,490.5 Z"/></g>
<g><path style="opacity:1" fill="#05086c" d="M 464.5,491.5 C 453.843,494.573 442.843,496.407 431.5,497C 415.833,497.667 400.167,497.667 384.5,497C 381.635,496.817 378.969,496.317 376.5,495.5C 397.836,495.667 419.169,495.5 440.5,495C 448.331,492.667 456.331,491.5 464.5,491.5 Z"/></g>
</svg>