<svg width="100%" height="100%" id="svg" viewBox="0 0 1440 700" xmlns="http://www.w3.org/2000/svg" class="transition duration-300 ease-in-out delay-150"><path d="M 0,700 C 0,700 0,140 0,140 C 291.5,165 583,190 823,190 C 1063,190 1251.5,165 1440,140 C 1440,140 1440,700 1440,700 Z" stroke="none" stroke-width="0" fill="#8ed1fc44" class="transition-all duration-300 ease-in-out delay-150 path-0" transform="rotate(-180 720 350)"></path><path d="M 0,700 C 0,700 0,280 0,280 C 275,287.5 550,295 790,295 C 1030,295 1235,287.5 1440,280 C 1440,280 1440,700 1440,700 Z" stroke="none" stroke-width="0" fill="#8ed1fc66" class="transition-all duration-300 ease-in-out delay-150 path-1" transform="rotate(-180 720 350)"></path><path d="M 0,700 C 0,700 0,420 0,420 C 218.5,422 437,424 677,424 C 917,424 1178.5,422 1440,420 C 1440,420 1440,700 1440,700 Z" stroke="none" stroke-width="0" fill="#8ed1fc88" class="transition-all duration-300 ease-in-out delay-150 path-2" transform="rotate(-180 720 350)"></path><path d="M 0,700 C 0,700 0,560 0,560 C 281.5,556 563,552 803,552 C 1043,552 1241.5,556 1440,560 C 1440,560 1440,700 1440,700 Z" stroke="none" stroke-width="0" fill="#8ed1fcff" class="transition-all duration-300 ease-in-out delay-150 path-3" transform="rotate(-180 720 350)"></path></svg>